Two ronin - an ex-samurai and an ex-farmer - get caught up a local officials complex game of murder and betrayal.

SUBS: English (muxed)
 
http://www.imdb.com/title/tt0063186/

General 
Unique ID : 246651672531805699169921037630748434228 (0xB98F625AAEF7D42393E08EFF426B1F34) 
Complete name : Kill NTSC DVD DD2.0 x264 Twilight.mkv 
Format : Matroska 
Format version : Version 2 
File size : 1.80 GiB 
Duration : 1h 54mn 
Overall bit rate : 2 244 Kbps 
Encoded date : UTC 2012-08-31 21:01:19 
Writing application : mkvmerge v5.7.0 ('The Whirlwind') built on Jul 8 2012 20:08:51 
Writing library : libebml v1.2.3 + libmatroska v1.3.0 

Video 
ID : 1 
Format : AVC 
Format/Info : Advanced Video Codec 
Format profile : High@L3.1 
Format settings, CABAC : Yes 
Format settings, ReFrames : 16 frames 
Codec ID : V_MPEG4/ISO/AVC 
Duration : 1h 54mn 
Bit rate : 2 050 Kbps 
Width : 720 pixels 
Height : 364 pixels 
Display aspect ratio : 2.35:1 
Frame rate mode : Constant 
Frame rate : 23.976 fps 
Color space : YUV 
Chroma subsampling : 4:2:0 
Bit depth : 8 bits 
Scan type : Progressive 
Bits/(Pixel*Frame) : 0.326 
Stream size : 1.61 GiB (89%) 
Title : Kiru 
Writing library : x264 core 98 r1649 20cbe10 
Encoding settings : cabac=1 / ref=16 / deblock=1:-3:-3 / analyse=0x3:0x113 / me=umh / subme=9 / psy=1 / psy_rd=1.19:0.03 / mixed_ref=1 / me_range=24 / chroma_me=1 / trellis=2 / 8x8dct=1 / cqm=0 / deadzone=21,11 / fast_pskip=1 / chroma_qp_offset=-3 / threads=6 / sliced_threads=0 / nr=0 / decimate=1 / interlaced=0 / constrained_intra=0 / bframes=10 / b_pyramid=2 / b_adapt=2 / b_bias=0 / direct=3 / weightb=1 / weightp=2 / keyint=250 / keyint_min=25 / scenecut=40 / intra_refresh=0 / rc=2pass / mbtree=0 / bitrate=2050 / ratetol=1.0 / qcomp=0.60 / qpmin=10 / qpmax=51 / qpstep=4 / cplxblur=20.0 / qblur=0.5 / ip_ratio=1.40 / pb_ratio=1.30 / aq=1:0.70 
Language : Japanese 
Default : Yes 
Forced : No 

Audio 
ID : 2 
Format : AC-3 
Format/Info : Audio Coding 3 
Mode extension : CM (complete main) 
Format settings, Endianness : Big 
Codec ID : A_AC3 
Duration : 1h 54mn 
Bit rate mode : Constant 
Bit rate : 192 Kbps 
Channel(s) : 1 channel 
Channel positions : Front: C 
Sampling rate : 48.0 KHz 
Bit depth : 16 bits 
Compression mode : Lossy 
Stream size : 157 MiB (9%) 
Title : Japanese AC3 2.0 
Language : Japanese 
Default : Yes 
Forced : No 

Text 
ID : 3 
Format : UTF-8 
Codec ID : S_TEXT/UTF8 
Codec ID/Info : UTF-8 Plain Text 
Title : English 
Language : English 
Default : Yes 
Forced : No 
